<?xml version="1.0" standalone="no"?>
<!DOCTYPE svg PUBLIC "-//W3C//DTD SVG 20010904//EN"
 "http://www.w3.org/TR/2001/REC-SVG-20010904/DTD/svg10.dtd">
<svg version="1.0" xmlns="http://www.w3.org/2000/svg"
 width="490.000000pt" height="490.000000pt" viewBox="0 0 490.000000 490.000000"
 preserveAspectRatio="xMidYMid meet">
<metadata>
Created by potrace 1.11, written by Peter Selinger 2001-2013
</metadata>
<g transform="translate(0.000000,490.000000) scale(0.100000,-0.100000)"
fill="#000000" stroke="none">
<path d="M2170 4889 c-1000 -122 -1822 -824 -2084 -1781 -68 -249 -81 -350
-81 -658 0 -308 13 -409 81 -658 225 -823 883 -1481 1706 -1706 249 -68 350
-81 658 -81 308 0 409 13 658 81 823 225 1481 883 1706 1706 68 249 81 350 81
658 0 308 -13 409 -81 658 -225 823 -883 1481 -1705 1706 -231 63 -345 78
-619 81 -135 2 -279 -1 -320 -6z m415 -519 c269 -22 493 -85 731 -205 377
-189 660 -472 849 -849 280 -556 280 -1176 0 -1732 -189 -377 -472 -660 -849
-849 -556 -280 -1176 -280 -1732 0 -377 189 -660 472 -849 849 -280 556 -280
1176 0 1732 189 377 472 660 849 849 229 116 468 184 712 204 144 12 149 12
289 1z"/>
<path d="M2185 4235 c-275 -45 -518 -140 -746 -294 -392 -264 -664 -676 -761
-1153 -20 -98 -23 -143 -23 -343 0 -200 3 -245 23 -343 64 -317 217 -626 424
-860 258 -290 617 -495 1010 -574 98 -20 143 -23 343 -23 200 0 245 3 343 23
732 148 1286 702 1434 1434 20 98 23 143 23 343 0 200 -3 245 -23 343 -79 393
-284 752 -574 1010 -232 206 -543 360 -854 423 -142 28 -480 36 -619 14z m385
-1194 l0 -638 550 -329 c302 -181 549 -333 549 -339 -1 -20 -176 -290 -186
-288 -6 1 -291 176 -633 388 -342 212 -626 385 -631 385 -5 0 -9 318 -9 730
l0 730 180 0 180 0 0 -639z"/>
</g>
</svg>
