<?xml version="1.0" standalone="no"?>
<!DOCTYPE svg PUBLIC "-//W3C//DTD SVG 20010904//EN"
 "http://www.w3.org/TR/2001/REC-SVG-20010904/DTD/svg10.dtd">
<svg version="1.0" xmlns="http://www.w3.org/2000/svg"
 width="512.000000pt" height="512.000000pt" viewBox="0 0 512.000000 512.000000"
 preserveAspectRatio="xMidYMid meet">
<metadata>
Created by potrace 1.11, written by Peter Selinger 2001-2013
</metadata>
<g transform="translate(0.000000,512.000000) scale(0.100000,-0.100000)"
fill="#000000" stroke="none">
<path d="M2379 5116 c-2 -2 -40 -6 -83 -10 -44 -4 -82 -9 -85 -11 -4 -2 -34
-7 -66 -10 -84 -10 -344 -77 -446 -115 -133 -50 -137 -52 -243 -103 -285 -137
-544 -327 -755 -553 -230 -246 -405 -522 -524 -824 -42 -106 -100 -291 -111
-350 -2 -14 -11 -56 -19 -95 -32 -151 -41 -255 -42 -475 0 -209 6 -287 34
-447 122 -694 524 -1307 1116 -1698 325 -215 695 -355 1060 -400 28 -4 77 -10
110 -15 59 -8 466 -5 515 4 14 2 45 7 70 10 223 33 385 76 600 162 686 272
1230 846 1473 1554 35 101 80 268 91 340 3 19 8 49 11 65 24 141 30 217 30
410 0 271 -25 470 -86 679 -12 38 -22 76 -24 85 -10 49 -86 235 -151 367 -77
159 -197 347 -304 480 -81 100 -293 313 -386 387 -353 282 -833 491 -1249 542
-27 4 -61 9 -75 11 -30 6 -455 15 -461 10z m441 -524 c36 -6 83 -13 105 -17
70 -10 267 -65 360 -101 473 -183 847 -517 1092 -974 35 -65 108 -237 128
-300 32 -102 71 -263 80 -334 26 -203 26 -461 -1 -621 -21 -128 -68 -298 -119
-435 -24 -66 -117 -247 -166 -326 -167 -269 -405 -504 -679 -673 -184 -113
-467 -225 -650 -257 -14 -3 -32 -7 -40 -9 -8 -3 -42 -7 -74 -11 -33 -3 -69 -8
-80 -11 -12 -2 -95 -6 -186 -7 -303 -5 -553 44 -829 161 -587 250 -1041 781
-1185 1388 -36 148 -37 154 -42 200 -3 22 -9 72 -13 110 -10 76 -7 324 4 420
45 390 217 785 474 1085 357 418 829 662 1396 723 64 6 363 -1 425 -11z"/>
<path d="M2305 3074 l0 -766 25 -18 c21 -15 808 -501 1049 -648 41 -24 112
-69 159 -98 47 -30 89 -54 93 -54 4 0 46 64 95 142 48 79 94 153 101 164 13
21 -6 33 -559 364 -315 189 -574 344 -576 346 -2 1 -3 301 -3 668 l0 666 -192
0 -193 0 1 -766z"/>
</g>
</svg>
